# xmcd CD database file
#
# Track frame offsets:
#	150
#	12507
#	29740
#	38327
#	48327
#	63610
#	77140
#	90525
#	102835
#	118620
#
# Disc length: 1730 seconds
#
# Revision: 0
# Processed by: cddbd v1.4PL0 Copyright (c) Steve Scherf et al.
# Submitted via: CDex 1.50beta9
#
DISCID=7a06c00a
DTITLE=Carole King - Carole King
DYEAR=1900
DGENRE=Jazz
TTITLE0=Brighter
TTITLE1=Music
TTITLE2=Crying in the rain
TTITLE3=Breaking up is hard to do
TTITLE4=Back to California
TTITLE5=Up on the roof
TTITLE6=Growing away from me
TTITLE7=Song a long ago
TTITLE8=Too much rain
TTITLE9=It started all over again
EXTD=
EXTT0=
EXTT1=
EXTT2=
EXTT3=
EXTT4=
EXTT5=
EXTT6=
EXTT7=
EXTT8=
EXTT9=
PLAYORDER=
